<?xml version="1.0" encoding="UTF-8" standalone="no"?>
<svg
   width="16"
   height="16"
   fill="currentColor"
   class="bi bi-envelope"
   viewBox="0 0 16 16"
   version="1.1"
   id="svg1"
   sodipodi:docname="envelope.svg"
   inkscape:version="1.3.1 (9b9bdc1480, 2023-11-25, custom)"
   xmlns:inkscape="http://www.inkscape.org/namespaces/inkscape"
   xmlns:sodipodi="http://sodipodi.sourceforge.net/DTD/sodipodi-0.dtd"
   xmlns="http://www.w3.org/2000/svg"
   xmlns:svg="http://www.w3.org/2000/svg">
  <defs
     id="defs1" />
  <sodipodi:namedview
     id="namedview1"
     pagecolor="#ffffff"
     bordercolor="#000000"
     borderopacity="0.25"
     inkscape:showpageshadow="2"
     inkscape:pageopacity="0.0"
     inkscape:pagecheckerboard="0"
     inkscape:deskcolor="#d1d1d1"
     inkscape:zoom="47.0625"
     inkscape:cx="8"
     inkscape:cy="8"
     inkscape:window-width="1920"
     inkscape:window-height="953"
     inkscape:window-x="1366"
     inkscape:window-y="27"
     inkscape:window-maximized="1"
     inkscape:current-layer="svg1" />
  <path
     d="M0 4a2 2 0 0 1 2-2h12a2 2 0 0 1 2 2v8a2 2 0 0 1-2 2H2a2 2 0 0 1-2-2zm2-1a1 1 0 0 0-1 1v.217l7 4.2 7-4.2V4a1 1 0 0 0-1-1zm13 2.383-4.708 2.825L15 11.105zm-.034 6.876-5.64-3.471L8 9.583l-1.326-.795-5.64 3.47A1 1 0 0 0 2 13h12a1 1 0 0 0 .966-.741M1 11.105l4.708-2.897L1 5.383z"
     id="path1" />
  <path
     style="fill:#ff0000;stroke-width:0.0212483"
     d="M 1.5939564,13.946146 C 0.77593917,13.770883 0.15062282,13.099058 0.03245114,12.268502 0.01529584,12.147928 0.01038141,10.920969 0.01492865,7.8937583 L 0.02124834,3.686587 0.06809719,3.5222666 C 0.17637437,3.1424891 0.33897377,2.8581832 0.59443631,2.6019601 0.84067398,2.3549892 1.1207906,2.1889692 1.478189,2.0781757 l 0.1579332,-0.048959 6.2895086,-0.00583 c 5.6995982,-0.00529 6.3054212,-0.00264 6.4591612,0.028216 0.810954,0.1627653 1.429997,0.8008403 1.573464,1.6218366 0.04672,0.2673359 0.04672,8.3857957 0,8.6531317 -0.142624,0.816174 -0.759916,1.454808 -1.566922,1.621094 -0.147564,0.03041 -0.781821,0.03358 -6.4063744,0.03201 -5.4576066,-0.0015 -6.2612575,-0.0057 -6.3910032,-0.03353 z m 12.6664766,-0.9717 c 0.172006,-0.0458 0.36198,-0.158628 0.474638,-0.281894 0.103063,-0.112767 0.234385,-0.343132 0.234385,-0.411157 0,-0.02474 -0.869759,-0.571086 -2.806387,-1.762847 C 10.619556,9.568702 9.345325,8.7903482 9.3314439,8.788872 9.3175628,8.7873961 9.0123094,8.9619778 8.6531028,9.176831 L 8,9.5674735 7.3468972,9.176831 C 6.9876906,8.9619778 6.6824372,8.7873961 6.6685561,8.788872 c -0.013881,0.00148 -1.2881122,0.77983 -2.831625,1.729676 -1.9366282,1.191761 -2.8063866,1.738104 -2.8063866,1.762847 0,0.01972 0.030505,0.09714 0.067789,0.172051 0.1207975,0.242698 0.368822,0.446351 0.6334067,0.52009 0.1478708,0.04121 12.3740028,0.0421 12.5286928,9.1e-4 z M 3.3321152,9.685876 C 4.6080839,8.9010229 5.6695584,8.246996 5.6909469,8.232483 5.72513,8.2092883 5.4444639,8.0348645 3.3713919,6.7909627 2.0742479,6.0126398 1.0073457,5.37583 1.000498,5.37583 c -0.006848,0 -0.0124502,1.2908367 -0.0124502,2.8685259 0,1.5776893 0.005428,2.8685261 0.012062,2.8685261 0.00663,0 1.0560365,-0.642153 2.3320054,-1.427006 z M 15.011952,8.2443559 c 0,-1.5776892 -0.0056,-2.8685259 -0.01245,-2.8685259 -0.0068,0 -1.074291,0.6371347 -2.372097,1.4158549 -1.627139,0.9763293 -2.3505,1.4212607 -2.33018,1.4332683 0.01621,0.00958 1.07648,0.6628258 2.356161,1.451663 1.279682,0.7888368 2.333865,1.4347028 2.34263,1.4352578 0.0088,5.54e-4 0.01594,-1.2898288 0.01594,-2.8675181 z m -3.507696,-1.9134396 3.507696,-2.1046746 -0.0012,-0.1742099 c -0.0037,-0.5225407 -0.31552,-0.9330727 -0.784963,-1.0333694 -0.0884,-0.018886 -1.6231,-0.023392 -6.3001332,-0.018495 l -6.1832669,0.00647 -0.1593626,0.076131 c -0.3903695,0.1864773 -0.60861602,0.5538 -0.59069727,0.994141 l 0.006343,0.1558736 3.49535187,2.0996148 c 1.9224436,1.154788 3.4969685,2.1004196 3.4989444,2.1014038 0.00198,9.843e-4 1.5820557,-0.9453142 3.5112877,-2.1028853 z"
     id="path2" />
</svg>
