<?xml version="1.0" encoding="UTF-8" standalone="no"?>
<svg
   width="16"
   height="16"
   fill="currentColor"
   class="bi bi-telephone"
   viewBox="0 0 16 16"
   version="1.1"
   id="svg1"
   sodipodi:docname="telephone.svg"
   inkscape:version="1.3.1 (9b9bdc1480, 2023-11-25, custom)"
   xmlns:inkscape="http://www.inkscape.org/namespaces/inkscape"
   xmlns:sodipodi="http://sodipodi.sourceforge.net/DTD/sodipodi-0.dtd"
   xmlns="http://www.w3.org/2000/svg"
   xmlns:svg="http://www.w3.org/2000/svg">
  <defs
     id="defs1" />
  <sodipodi:namedview
     id="namedview1"
     pagecolor="#ffffff"
     bordercolor="#000000"
     borderopacity="0.25"
     inkscape:showpageshadow="2"
     inkscape:pageopacity="0.0"
     inkscape:pagecheckerboard="0"
     inkscape:deskcolor="#d1d1d1"
     inkscape:zoom="47.0625"
     inkscape:cx="8"
     inkscape:cy="8"
     inkscape:window-width="1920"
     inkscape:window-height="953"
     inkscape:window-x="1366"
     inkscape:window-y="27"
     inkscape:window-maximized="1"
     inkscape:current-layer="svg1" />
  <path
     d="M3.654 1.328a.678.678 0 0 0-1.015-.063L1.605 2.3c-.483.484-.661 1.169-.45 1.77a17.6 17.6 0 0 0 4.168 6.608 17.6 17.6 0 0 0 6.608 4.168c.601.211 1.286.033 1.77-.45l1.034-1.034a.678.678 0 0 0-.063-1.015l-2.307-1.794a.68.68 0 0 0-.58-.122l-2.19.547a1.75 1.75 0 0 1-1.657-.459L5.482 8.062a1.75 1.75 0 0 1-.46-1.657l.548-2.19a.68.68 0 0 0-.122-.58zM1.884.511a1.745 1.745 0 0 1 2.612.163L6.29 2.98c.329.423.445.974.315 1.494l-.547 2.19a.68.68 0 0 0 .178.643l2.457 2.457a.68.68 0 0 0 .644.178l2.189-.547a1.75 1.75 0 0 1 1.494.315l2.306 1.794c.829.645.905 1.87.163 2.611l-1.034 1.034c-.74.74-1.846 1.065-2.877.702a18.6 18.6 0 0 1-7.01-4.42 18.6 18.6 0 0 1-4.42-7.009c-.362-1.03-.037-2.137.703-2.877z"
     id="path1" />
  <path
     style="fill:#ff0000;stroke-width:0.0212483"
     d="M 12.239044,15.976543 C 11.88907,15.949986 11.556259,15.848234 10.746649,15.520268 6.8905647,13.958198 3.6327737,11.10085 1.5425736,7.4475432 0.8574757,6.250111 0.13765117,4.5639129 0.04028924,3.9284228 -0.03898834,3.4109712 0.05197848,2.8513209 0.29718428,2.3479416 0.48530089,1.9617599 0.56638411,1.8639681 1.3479255,1.0806781 1.9790543,0.44813722 2.1056807,0.33114176 2.2483245,0.24876194 2.8786567,-0.11526849 3.6751101,-0.04575598 4.231911,0.42188452 4.4492352,0.6044088 6.3243109,3.0144752 6.4578087,3.2828685 6.6011319,3.5710154 6.6284938,3.6958094 6.6278557,4.0584329 l -5.42e-4,0.308101 -0.3033874,1.2005312 c -0.3364892,1.3315181 -0.3371447,1.3360442 -0.2262077,1.561753 0.070369,0.1431702 2.6271101,2.7007254 2.7734633,2.7743464 0.065431,0.032914 0.1459285,0.050922 0.2549801,0.057042 0.1491655,0.00837 0.2361802,-0.010416 1.359894,-0.29361 l 1.200531,-0.3025529 0.25498,-6.264e-4 c 0.314371,-7.724e-4 0.474513,0.036463 0.76494,0.1778603 0.184073,0.089617 0.377263,0.2315032 1.444887,1.0611795 0.677822,0.526751 1.287745,1.016553 1.355383,1.088447 0.335968,0.357109 0.503509,0.808942 0.475073,1.281208 -0.02022,0.335834 -0.117002,0.618443 -0.306503,0.89502 -0.04707,0.06869 -0.39965,0.436404 -0.783517,0.817132 -0.734376,0.728371 -0.851925,0.825296 -1.229147,1.013497 -0.435538,0.217294 -0.9378,0.315649 -1.423639,0.278782 z m 0.549672,-1.070621 c 0.277588,-0.05881 0.512169,-0.167648 0.735852,-0.341407 0.06428,-0.04993 0.386412,-0.361715 0.715857,-0.692854 0.682614,-0.686125 0.692925,-0.700737 0.694824,-0.984543 9.33e-4,-0.139496 -0.0086,-0.190949 -0.05338,-0.286852 -0.02999,-0.06428 -0.08231,-0.146016 -0.116267,-0.181644 -0.05311,-0.05571 -2.235612,-1.762887 -2.424223,-1.896249 -0.03721,-0.02631 -0.108922,-0.06242 -0.159362,-0.08024 -0.192354,-0.06798 -0.294284,-0.05083 -1.525225,0.256511 -0.636508,0.158924 -1.2283134,0.297959 -1.3151224,0.308965 -0.28244,0.03581 -0.6734764,-0.03634 -0.9448757,-0.174333 C 8.1649383,10.715383 7.9979599,10.562907 6.8554216,9.4257693 5.4609906,8.0379298 5.317743,7.883725 5.1860056,7.6286574 5.0360295,7.3382759 4.9944302,7.1619149 4.9954318,6.8207171 L 4.9962739,6.5338645 5.2995536,5.3333333 C 5.5793258,4.225856 5.6019667,4.1218314 5.5916556,3.9912627 5.5850295,3.9073558 5.5614666,3.8121842 5.5337874,3.7575309 5.5081075,3.7068252 5.0591203,3.1155378 4.5360382,2.4435591 3.5440045,1.1691407 3.5275425,1.150772 3.3172632,1.0836176 3.1939438,1.0442346 2.9325973,1.0657324 2.815405,1.1248996 2.7053491,1.1804638 1.575915,2.2905702 1.4198848,2.4965386 1.148921,2.854226 1.0172551,3.3225143 1.0706302,3.7387113 1.1325936,4.221876 1.7720148,5.7222134 2.3796069,6.810093 c 1.3517992,2.4203656 3.280184,4.509263 5.5991448,6.065201 0.6968431,0.467556 1.3543352,0.84512 2.1142093,1.214082 0.745516,0.36199 1.687302,0.74294 2.018593,0.816515 0.171095,0.038 0.497891,0.03801 0.677162,3.1e-5 z"
     id="path2" />
</svg>
